<?xml version="1.0" standalone="no"?><!DOCTYPE svg PUBLIC "-//W3C//DTD SVG 1.1//EN"
        "http://www.w3.org/Graphics/SVG/1.1/DTD/svg11.dtd">
<svg class="icon" viewBox="0 0 1024 1024" version="1.1" xmlns="http://www.w3.org/2000/svg"
     width="22" height="22" xmlns:xlink="http://www.w3.org/1999/xlink">
    <defs>
        <style type="text/css"></style>
    </defs>
    <path d="M258.8831288888889 753.0996622222223c-30.707484444444447 0-57.70467555555555-4.322417777777777-82.53326222222222-13.213013333333333-68.89130666666667-24.673848888888887-122.3532088888889-69.07107555555555-150.53596444444443-125.01333333333332-26.814008888888885-53.224106666666664-30.632391111111108-118.70890666666668-10.47552-179.66079999999997 20.148906666666665-60.92799999999999 62.23758222222222-111.29287111111111 115.47420444444442-138.18197333333333 31.854364444444446-16.089315555555554 67.58741333333333-24.24718222222222 106.20586666666665-24.24718222222222 30.97941333333334 0 62.664248888888885 5.241742222222223 94.17841777777775 15.580728888888888 76.21404444444444 25.00608 131.58286222222222 93.81660444444444 181.7634133333333 162.1549511111111 0.22300444444444442 0.30492444444444444 0.45511111111111113 0.6018844444444443 0.6963199999999998 0.8931555555555556 13.311999999999998 16.06656 25.844622222222217 33.764693333333334 37.96309333333333 50.88028444444444 8.17607111111111 11.547306666666666 16.628622222222223 23.484871111111108 25.383822222222218 35.032177777777775 18.30229333333333 24.13340444444444 40.484408888888886 52.35825777777778 66.24938666666667 78.70691555555555 19.2 19.62894222222222 42.806613333333324 41.528888888888886 72.32853333333333 55.14012444444444 26.519324444444447 12.228835555555554 58.484053333333335 18.96448 90.00732444444445 18.96448 5.658168888888889 0 11.324302222222222-0.21959111111111107 16.842524444444443-0.6508088888888889a18.867768888888886 18.867768888888886 0 0 0 2.31424-0.32199111111111106c50.510506666666664-10.172871111111112 92.99285333333334-43.21962666666666 116.55395555555555-90.66496000000001 18.444515555555554-37.12455111111111 25.25639111111111-77.96622222222223 19.18065777777778-115.00088888888885-5.782186666666665-35.22446222222222-24.11633777777778-68.73429333333334-51.623253333333324-94.36273777777778-30.358186666666665-28.288568888888893-70.83463111111111-48.71736888888889-108.27434666666666-54.64746666666666-10.87488-1.7214577777777773-22.464284444444445-2.594133333333333-34.44849777777778-2.594133333333333-37.54780444444444 0-75.03644444444444 8.344462222222221-110.21653333333333 16.89144888888889a19.349048888888888 19.349048888888888 0 0 0-10.108017777777778 31.417457777777777c19.07029333333333 22.186666666666667 37.15299555555555 46.20174222222222 54.63950222222221 69.42720000000001 3.8513777777777776 5.113173333333333 7.70048 10.226346666666666 11.56437333333333 15.327004444444443 20.376462222222223 26.895928888888886 43.703182222222225 54.03875555555556 76.14577777777777 70.38293333333333a133.78901333333332 133.78901333333332 0 0 0 9.5232 4.339484444444444c-3.564657777777778 0.32426666666666665-7.165724444444443 0.4892444444444444-10.781582222222223 0.4892444444444444-26.13475555555555 0-54.53368888888888-8.644835555555554-82.12707555555556-25.00039111111111-24.874097777777774-14.744462222222221-48.86869333333333-35.709155555555554-67.56238222222223-59.03359999999999-30.127217777777776-37.58876444444444-69.04718222222223-85.21386666666666-112.3714844444444-132.71381333333335 13.44512-4.100551111111111 27.015395555555553-7.96672 40.320568888888886-11.756657777777777 5.87776-1.674808888888889 11.747555555555554-3.3450666666666664 17.59800888888889-5.034666666666666 37.324799999999996-10.765653333333333 66.10943999999999-17.992817777777777 93.32508444444443-23.435946666666666l1.6179199999999998-0.32199111111111106c30.77688888888889-6.156515555555555 59.845973333333326-11.97056 89.99480888888888-11.97056 24.84224 0 48.967679999999994 4.015217777777777 73.75644444444445 12.27776 1.8340977777777778 0.6109866666666667 3.662506666666666 1.237902222222222 5.4840888888888895 1.8773333333333333 54.29816888888889 19.11808 99.00373333333333 50.10773333333332 129.2811377777778 89.62048 18.569671111111113 24.238080000000004 31.648426666666662 52.02830222222222 38.87331555555555 82.59925333333332 6.9552355555555545 29.43203555555555 8.203377777777778 60.041671111111114 3.711431111111111 90.97329777777777-9.094257777777779 62.61759999999999-41.50499555555555 119.7715911111111-88.92074666666667 156.80853333333332-39.70730666666667 31.01127111111111-89.52263111111111 47.40437333333333-144.04949333333334 47.40437333333333h-0.005688888888888887c-12.964977777777776 0-26.127928888888885-0.96256-39.124764444444445-2.8603733333333325-36.11192888888888-5.271324444444445-67.38375111111111-15.48174222222222-92.94279111111109-30.349084444444443-22.914844444444444-13.32679111111111-45.837653333333336-31.81340444444444-70.08028444444444-56.51569777777777-43.25262222222223-44.070684444444446-80.05859555555556-96.06485333333332-115.65283555555555-146.33984a10647.065031111113 10647.065031111113 0 0 0-11.922773333333332-16.823182222222222c-3.4656711111111105-4.8742399999999995-6.933617777777777-9.789439999999997-10.415217777777777-14.723982222222222-3.4474666666666662-4.885617777777777-29.64366222222222-38.41024-56.730737777777776-70.76408888888889-4.099413333333334-4.894719999999999-8.217031111111112-9.762133333333333-12.280035555555552-14.49984-17.15313777777778-20.000995555555555-33.32209777777778-37.68433777777777-42.811164444444444-45.28241777777778a19.27736888888889 19.27736888888889 0 0 0-3.7649066666666666-2.3597511111111107c-26.951679999999996-12.858026666666664-59.13372444444443-19.937279999999998-90.61831111111111-19.937279999999998-19.920213333333333 0-38.927928888888886 2.7329422222222224-56.49180444444444 8.122595555555556-43.57688888888889 13.373439999999999-79.21436444444444 44.42794666666667-100.352 87.4439111111111-36.089173333333335 73.42990222222221-23.636195555555553 154.80945777777777 31.723519999999997 207.32472888888887 30.111288888888893 28.56277333333333 70.40341333333332 49.353386666666665 107.78282666666665 55.61571555555555 11.54048 1.9330844444444444 23.892195555555553 2.9138488888888885 36.71608888888889 2.9138488888888885 36.80824888888889 0 73.57212444444444-7.85976888888889 108.07409777777777-15.908408888888887 6.559288888888888-1.5314488888888889 11.851093333333333-6.362453333333333 13.970773333333332-12.755626666666668s0.7634488888888888-13.42919111111111-3.5828622222222215-18.573084444444444c-18.815431111111106-22.284515555555554-36.62620444444444-46.38833777777778-53.84988444444445-69.69799111111112-3.857066666666667-5.220124444444444-7.714133333333334-10.440248888888888-11.58599111111111-15.648995555555556-20.13752888888889-27.073422222222224-43.22304-54.424462222222225-75.52227555555555-71.06104888888888a134.9063111111111 134.9063111111111 0 0 0-9.506133333333334-4.435057777777778 118.10133333333334 118.10133333333334 0 0 1 9.748479999999999-0.4027733333333333c26.25308444444444 0 54.76238222222222 8.799573333333333 82.44451555555554 25.44981333333333 24.942364444444443 15.0016 48.922168888888876 36.27918222222222 67.52483555555555 59.92220444444443 29.766542222222217 37.824284444444444 68.25073777777777 85.78389333333332 111.25304888888887 133.7912888888889-20.252444444444446 6.059804444444444-40.83029333333334 11.613297777777777-60.94392888888887 17.04049777777778l-11.088782222222223 2.9957688888888887c-54.12067555555555 14.650026666666664-111.59210666666664 28.95644444444444-166.91427555555555 28.95644444444444z"
          fill="#E33C45"></path>
</svg>
