<?xml version="1.0" encoding="utf-8"?>
<!-- Generator: Adobe Illustrator 23.1.1, SVG Export Plug-In . SVG Version: 6.00 Build 0)  -->
<svg version="1.1" id="图层_1" xmlns="http://www.w3.org/2000/svg" xmlns:xlink="http://www.w3.org/1999/xlink" x="0px" y="0px"
	 viewBox="0 0 74 18.5" style="enable-background:new 0 0 74 18.5;" xml:space="preserve">
<path d="M12.5,9.8c-0.1-0.2-0.3-0.5-0.6-0.6c-0.3-0.2-0.6-0.3-0.9-0.5c-0.3-0.1-0.7-0.2-1-0.3C9,8.3,8,7.9,7.1,7.4
	C7,7.4,6.9,7.3,6.8,7.2C6.8,7,6.7,6.9,6.7,6.8c0-0.5,0.1-0.9,0.2-1.4c0.2-0.5,0.4-0.8,0.6-1.1c0.4-0.4,1.1-0.8,2.1-1.1
	c1-0.3,2.1-0.5,3.4-0.5c0.8,0,1.3,0.1,1.7,0.2c0.4,0.1,0.6,0.3,0.6,0.5c0,0.4-0.1,0.7-0.2,0.9c-0.1,0.2-0.2,0.4-0.3,0.4
	c-0.1,0.1-0.3,0.2-0.6,0.3c-0.3,0.1-0.6,0.2-0.9,0.4s-0.4,0.2-0.6,0.4c-0.2,0.1-0.3,0.2-0.3,0.2c-0.1,0-0.1,0-0.1-0.1
	c0-0.1,0.1-0.2,0.3-0.4C12.8,5.3,13,5.1,13.3,5c0.3-0.2,0.4-0.2,0.4-0.3c0-0.1-0.2-0.1-0.5-0.1c-1,0-1.9,0.1-2.7,0.3
	C9.8,5,9.1,5.2,8.6,5.5C8.2,5.8,7.9,6.1,7.9,6.4c0,0.2,0.1,0.3,0.3,0.4C8.4,6.8,8.9,7,9.5,7.1c0.7,0.2,1.3,0.4,1.8,0.6
	c0.8,0.3,1.3,0.7,1.7,1c0.4,0.3,0.5,0.7,0.5,1.2c0,0.3-0.1,0.6-0.2,0.9c-0.1,0.3-0.4,0.6-0.6,0.8c-0.3,0.2-0.6,0.5-1,0.6
	c-0.3,0.1-0.7,0.3-1.2,0.4c-0.5,0.1-1,0.2-1.5,0.3C8.5,13,8,13,7.5,13c-0.9,0-1.6-0.1-2.2-0.3S4.5,12.3,4.5,12
	c0-0.2,0.1-0.4,0.3-0.7c0.2-0.3,0.4-0.6,0.7-0.7c0.2-0.1,0.4-0.1,0.6-0.2c0.2,0,0.3,0,0.3,0.1c0,0,0,0,0,0s0,0-0.1,0c0,0,0,0-0.1,0
	c-0.1,0-0.2,0.1-0.3,0.1c-0.1,0-0.1,0-0.2,0.1s-0.1,0.1-0.1,0.1C5.8,11,6.3,11,7.4,11c0.9,0,1.7,0,2.3-0.1c0.6-0.1,1.1-0.2,1.6-0.4
	C11.7,10.4,12.2,10.1,12.5,9.8z M16,9.9v0.2c0,0.3,0.1,0.5,0.2,0.7c0.2,0.2,0.3,0.3,0.6,0.3c0.3,0,0.5-0.1,0.8-0.2
	c0.3-0.1,0.5-0.3,0.8-0.5c0.3-0.2,0.6-0.5,1-0.8v0.5c-0.6,0.7-1.1,1.3-1.7,1.6c-0.5,0.4-1,0.6-1.6,0.6c-0.5,0-0.8-0.2-1.1-0.5
	c-0.3-0.4-0.4-0.9-0.4-1.5c0-0.5,0.1-1,0.4-1.5c0.3-0.4,0.7-0.9,1.2-1.4c0.4-0.3,0.8-0.6,1.2-0.8s0.7-0.3,1-0.3
	c0.2,0,0.4,0.1,0.6,0.2c0.1,0.1,0.2,0.3,0.2,0.5c0,0.3-0.1,0.7-0.4,1c-0.2,0.3-0.6,0.6-1.1,1C17.4,9.3,16.8,9.6,16,9.9z M16.1,9.4
	C16.6,9.2,17,9,17.3,8.7c0.3-0.3,0.6-0.5,0.7-0.8c0.2-0.2,0.2-0.4,0.2-0.5c0-0.1-0.1-0.2-0.2-0.2c-0.1,0-0.2,0.1-0.5,0.2
	c-0.2,0.1-0.4,0.3-0.6,0.5c-0.2,0.2-0.4,0.4-0.6,0.7C16.3,8.8,16.2,9.1,16.1,9.4z M20.4,8.2c0.8-0.7,1.6-1.3,2.3-1.6
	c0.7-0.3,1.3-0.5,1.7-0.5c0.1,0,0.2,0,0.3,0.1c0.1,0.1,0.2,0.2,0.2,0.3C25,6.7,25,6.8,25,6.8C25,6.9,25,7,24.9,7
	c-0.1,0-0.2,0.1-0.4,0.2c0,0.1,0.1,0.2,0.1,0.3c0.1,0.1,0.1,0.2,0.1,0.3c0,0.1,0,0.2,0,0.2c0,0.1-0.1,0.4-0.4,0.7
	c-0.3,0.3-0.4,0.6-0.5,0.8c-0.1,0.2-0.2,0.4-0.2,0.6c0,0.4,0.2,0.6,0.5,0.6c0.4,0,0.9-0.3,1.7-1v0.5c-1.3,1.5-2.3,2.2-2.8,2.2
	c-0.2,0-0.3-0.1-0.4-0.2s-0.1-0.3-0.1-0.6c0-0.4,0.1-1,0.4-1.8c-0.8,0.8-1.3,1.4-1.7,1.8c-0.4,0.4-0.7,0.5-0.9,0.5
	c-0.1,0-0.3-0.1-0.4-0.3c-0.2-0.2-0.3-0.5-0.5-0.8c-0.1-0.3-0.2-0.6-0.2-1c0-0.2,0-0.4,0.1-0.6s0.1-0.3,0.3-0.5
	C19.8,8.7,20.1,8.5,20.4,8.2z M24.1,7.4c-1.4,0.6-2.3,1.1-2.9,1.6c-0.6,0.4-0.9,0.9-0.9,1.3c0,0.2,0,0.3,0.1,0.4
	c0.1,0.1,0.1,0.2,0.2,0.2c0.1,0,0.2,0,0.3-0.1c0.5-0.3,1-0.7,1.5-1.3C22.9,9,23.5,8.2,24.1,7.4z M31.2,8.2c-0.9,1-1.4,1.7-1.4,2.1
	c0,0.2,0.1,0.3,0.3,0.3c0.2,0,0.3-0.1,0.6-0.2c0.2-0.2,0.6-0.4,1.1-0.8v0.5c-0.7,0.7-1.3,1.3-1.7,1.6c-0.4,0.3-0.7,0.5-1,0.5
	c-0.4,0-0.6-0.3-0.6-0.8c0-0.2,0-0.3,0.1-0.5c0.1-0.2,0.1-0.3,0.2-0.5c0.1-0.2,0.2-0.4,0.4-0.8c0.2-0.3,0.4-0.7,0.6-1.1
	c-0.3,0.2-0.7,0.5-1.1,0.9c-0.3,0.3-0.5,0.5-0.7,0.8c-0.2,0.3-0.4,0.5-0.7,0.8c-0.2,0.3-0.4,0.5-0.5,0.6c-0.1,0.1-0.2,0.2-0.3,0.2
	c-0.2,0-0.3-0.2-0.5-0.5c-0.1-0.3-0.2-0.8-0.2-1.2c0-0.3,0-0.5,0.1-0.7C26,9.2,26.2,9,26.3,8.7c0.4-0.6,0.7-1,0.9-1.2
	c0.3-0.3,0.5-0.4,0.8-0.4c0.2,0,0.3,0,0.4,0.1c0.1,0.1,0.2,0.1,0.2,0.3c0,0.1,0,0.1,0,0.2c0,0.1-0.1,0.1-0.1,0.2s-0.1,0.1-0.2,0.3
	c-0.8,0.9-1.2,1.5-1.2,1.8c0,0.2,0,0.2,0.1,0.2c0.1,0,0.2-0.1,0.4-0.3c0.2-0.2,0.4-0.5,0.7-0.8c0.3-0.3,0.6-0.7,1-1
	c0.4-0.4,0.8-0.7,1.3-1c0.3-0.2,0.5-0.3,0.7-0.3c0.1,0,0.2,0.1,0.2,0.3c0.1,0.2,0.1,0.5,0.1,0.7C31.5,7.8,31.4,8,31.2,8.2z
	 M37.4,16.6l-0.3-0.2c-0.2-0.2-0.2-0.3-0.2-0.5c0-0.2,0.1-0.5,0.4-0.8s0.6-0.8,1.1-1.3s1.1-1,1.9-1.6s1.6-1.1,2.6-1.6
	c-0.1-0.4-0.2-0.6-0.3-0.8c-0.1-0.1-0.4-0.2-0.8-0.2c-0.3,0-0.8,0.2-1.6,0.5c-0.7,0.3-1.4,0.7-2,1.2c-0.2,0.2-0.4,0.3-0.5,0.3
	c-0.1,0-0.2-0.1-0.2-0.3c0-0.3,0.1-0.6,0.3-1c0.2-0.4,0.4-0.7,0.6-0.9c0.3-0.3,0.9-0.6,1.6-0.9c0.8-0.4,1.5-0.8,2.1-1.2
	s1.1-0.8,1.5-1.2c0.3-0.4,0.5-0.6,0.5-0.8c0-0.2-0.2-0.3-0.6-0.3c-0.5,0-1.1,0.1-1.8,0.3c-0.7,0.2-1.4,0.6-2.3,1.1
	c-0.8,0.5-1.7,1.1-2.6,1.8c0-0.7,0.1-1.3,0.2-1.7c0.1-0.4,0.2-0.8,0.4-1s0.4-0.5,0.7-0.7s0.7-0.5,1.3-0.8c1.6-0.9,2.9-1.3,4-1.3
	c0.6,0,1.2,0.2,1.5,0.5c0.4,0.3,0.6,0.8,0.6,1.4c0,0.4-0.1,0.8-0.3,1.1s-0.4,0.7-0.7,1c-0.3,0.3-0.7,0.6-1.1,0.9s-1,0.6-1.6,0.9
	c0.7,0,1.2,0.2,1.5,0.5c0.3,0.3,0.5,0.8,0.6,1.5l1-0.4v0.6l-1.1,0.5c-0.2,0.9-0.6,1.7-1.1,2.4s-1.1,1.4-1.8,1.9s-1.3,0.9-1.9,1.2
	s-1.1,0.4-1.4,0.4C37.6,16.7,37.5,16.7,37.4,16.6z M42.7,11.3c-0.6,0.3-1.2,0.6-1.8,1c-0.6,0.4-1.1,0.8-1.5,1.3s-0.8,0.8-1,1.2
	S38,15.4,38,15.5c0,0.1,0.1,0.1,0.2,0.1c0.2,0,0.7-0.2,1.3-0.6s1.2-0.9,1.9-1.6c0.4-0.5,0.7-0.9,0.9-1.2S42.6,11.7,42.7,11.3z
	 M50.8,9.6v0.5c-0.5,0.5-0.8,0.8-1.2,1.1c-0.3,0.3-0.6,0.5-0.9,0.7c-0.2,0.2-0.5,0.2-0.6,0.2c-0.4,0-0.6-0.2-0.6-0.7
	c0-0.4,0.1-0.8,0.4-1.3S48.5,9,49,8.3c-0.2,0.1-0.5,0.3-0.7,0.4c-0.2,0.2-0.4,0.3-0.6,0.5c-0.2,0.2-0.3,0.3-0.4,0.5
	c-0.3,0.4-0.7,0.8-1,1.2s-0.5,0.7-0.6,0.8c-0.1,0.1-0.2,0.2-0.3,0.2c-0.4,0-0.6-0.5-0.6-1.5c0-0.3,0-0.7,0.1-1.1
	c0.1-0.4,0.4-0.9,0.8-1.6c0.9-1.4,1.7-2.5,2.3-3.3s1.2-1.5,1.6-2s0.7-0.7,0.9-0.7c0.2,0,0.3,0.1,0.4,0.1C51.1,1.9,51.2,2,51.2,2
	c0,0.1-0.1,0.3-0.3,0.6C50.7,3,50.4,3.5,50,4.1c-0.5,0.7-0.8,1.1-1,1.4s-0.5,0.7-0.9,1.2c-0.4,0.5-0.8,1-1.1,1.3
	c-0.3,0.4-0.7,0.8-1.1,1.3v0.9c0.7-0.8,1.3-1.4,1.8-1.9c0.5-0.5,0.9-0.9,1.3-1.1c0.4-0.3,0.6-0.4,0.8-0.4c0.2,0,0.3,0.1,0.4,0.3
	c0.1,0.2,0.2,0.3,0.2,0.5c0,0.1,0,0.1-0.1,0.2c-0.4,0.4-0.7,0.8-0.9,1.1c-0.2,0.3-0.4,0.6-0.5,0.8c-0.1,0.2-0.2,0.4-0.2,0.6
	c0,0.2,0.1,0.4,0.4,0.4C49.4,10.6,49.9,10.3,50.8,9.6z M51.7,8.2C52.5,7.5,53.3,7,54,6.6c0.7-0.3,1.3-0.5,1.7-0.5
	c0.1,0,0.2,0,0.3,0.1c0.1,0.1,0.2,0.2,0.2,0.3c0.1,0.1,0.1,0.2,0.1,0.3c0,0.1,0,0.2-0.1,0.2c-0.1,0-0.2,0.1-0.4,0.2
	c0,0.1,0.1,0.2,0.1,0.3c0.1,0.1,0.1,0.2,0.1,0.3c0,0.1,0,0.2,0,0.2c0,0.1-0.1,0.4-0.4,0.7c-0.3,0.3-0.4,0.6-0.5,0.8
	c-0.1,0.2-0.2,0.4-0.2,0.6c0,0.4,0.2,0.6,0.5,0.6c0.4,0,0.9-0.3,1.7-1v0.5c-1.3,1.5-2.3,2.2-2.8,2.2c-0.2,0-0.3-0.1-0.4-0.2
	S54,11.8,54,11.5c0-0.4,0.1-1,0.4-1.8c-0.8,0.8-1.3,1.4-1.7,1.8c-0.4,0.4-0.7,0.5-0.9,0.5c-0.1,0-0.3-0.1-0.4-0.3
	c-0.2-0.2-0.3-0.5-0.5-0.8c-0.1-0.3-0.2-0.6-0.2-1c0-0.2,0-0.4,0.1-0.6s0.1-0.3,0.3-0.5S51.4,8.5,51.7,8.2z M55.4,7.4
	c-1.4,0.6-2.3,1.1-2.9,1.6c-0.6,0.4-0.9,0.9-0.9,1.3c0,0.2,0,0.3,0.1,0.4c0.1,0.1,0.1,0.2,0.2,0.2c0.1,0,0.2,0,0.3-0.1
	c0.5-0.3,1-0.7,1.5-1.3C54.3,9,54.8,8.2,55.4,7.4z M62.6,8.2c-0.9,1-1.4,1.7-1.4,2.1c0,0.2,0.1,0.3,0.3,0.3c0.2,0,0.3-0.1,0.6-0.2
	c0.2-0.2,0.6-0.4,1.1-0.8v0.5c-0.7,0.7-1.3,1.3-1.7,1.6c-0.4,0.3-0.7,0.5-1,0.5c-0.4,0-0.6-0.3-0.6-0.8c0-0.2,0-0.3,0.1-0.5
	c0.1-0.2,0.1-0.3,0.2-0.5c0.1-0.2,0.2-0.4,0.4-0.8c0.2-0.3,0.4-0.7,0.6-1.1c-0.3,0.2-0.7,0.5-1.1,0.9c-0.3,0.3-0.5,0.5-0.7,0.8
	c-0.2,0.3-0.4,0.5-0.7,0.8c-0.2,0.3-0.4,0.5-0.5,0.6c-0.1,0.1-0.2,0.2-0.3,0.2c-0.2,0-0.3-0.2-0.5-0.5c-0.1-0.3-0.2-0.8-0.2-1.2
	c0-0.3,0-0.5,0.1-0.7c0.1-0.2,0.2-0.4,0.4-0.7c0.4-0.6,0.7-1,0.9-1.2s0.5-0.4,0.8-0.4c0.2,0,0.3,0,0.4,0.1c0.1,0.1,0.2,0.1,0.2,0.3
	c0,0.1,0,0.1,0,0.2c0,0.1-0.1,0.1-0.1,0.2s-0.1,0.1-0.2,0.3c-0.8,0.9-1.2,1.5-1.2,1.8c0,0.2,0,0.2,0.1,0.2c0.1,0,0.2-0.1,0.4-0.3
	C59,9.6,59.2,9.3,59.5,9c0.3-0.3,0.6-0.7,1-1c0.4-0.4,0.8-0.7,1.3-1c0.3-0.2,0.5-0.3,0.7-0.3c0.1,0,0.2,0.1,0.2,0.3
	c0.1,0.2,0.1,0.5,0.1,0.7C62.9,7.8,62.8,8,62.6,8.2z M69.3,10.1l-2.6,2.1c-0.7,1.3-1.4,2.2-2,2.8s-1,0.9-1.3,0.9
	c-0.2,0-0.2-0.1-0.2-0.3c0-0.4,0.2-0.9,0.6-1.4c0.2-0.2,0.3-0.5,0.5-0.7s0.4-0.4,0.6-0.6s0.4-0.4,0.7-0.6s0.5-0.4,0.6-0.5
	c0.5-1.1,0.9-1.9,1.1-2.4c-0.5,0.5-0.9,0.9-1.3,1.3c-0.4,0.3-0.7,0.6-1,0.8s-0.6,0.3-0.8,0.3c-0.3,0-0.5-0.2-0.7-0.6
	c-0.2-0.4-0.3-0.9-0.3-1.3c0-0.2,0-0.4,0.1-0.7c0.1-0.2,0.2-0.5,0.5-0.7c0.2-0.3,0.5-0.5,0.8-0.8s0.7-0.5,1.1-0.8
	c0.8-0.5,1.4-0.8,1.9-0.8c0.3,0,0.5,0.1,0.5,0.4c0,0.3-0.4,0.7-1.1,1C66.4,7.7,66,8,65.5,8.3c-0.4,0.3-0.8,0.7-1.1,1
	c-0.3,0.4-0.4,0.7-0.4,1c0,0.1,0,0.3,0.1,0.3c0.1,0.1,0.2,0.1,0.3,0.1c0.2,0,0.4-0.1,0.6-0.2c0.2-0.2,0.6-0.5,1-0.9
	c0.2-0.2,0.5-0.5,0.8-0.9s0.6-0.8,0.9-1s0.4-0.3,0.6-0.3c0.1,0,0.2,0,0.3,0.1c0.1,0.1,0.1,0.2,0.1,0.3c0,0.2-0.1,0.6-0.3,1
	c-0.2,0.5-0.5,1.2-1,2.2l1.9-1.4V10.1z"/>
</svg>
